{"title":"Red 2 2013 DVDRip x264 AC3 -BoRD","uid":9117399,"size":1677577821,"categoryP":"video","categoryS":"movies","magnet":"?xt=urn:btih:068ab7c1786059230f0670e79f59a4e0019edfc1&amp;dn=Red+2+2013+DVDRip+x264+AC3+-BoRD&amp;tr=udp%3A%2F%2Ftracker.openbittorrent.com%3A80&amp;tr=udp%3A%2F%2Fopen.demonii.com%3A1337&amp;tr=udp%3A%2F%2Ftracker.coppersurfer.tk%3A6969&amp;tr=udp%3A%2F%2Fexodus.desync.com%3A6969","seeders":1,"leechers":0,"uploader":"TeX","files":4,"time":1383053567,"description":"[IMG]http://lookpic.com/O/i2/213/h82LcrKi.jpeg[/IMG]\n~~~~~~~~~~~~~~~~~~~~~~~~~~~~~~~~~~~~~~~~~~~~~~~~~~~~~~\n                    GENERAL INFO\n~~~~~~~~~~~~~~~~~~~~~~~~~~~~~~~~~~~~~~~~~~~~~~~~~~~~~~\n\nTITLE   : Red 2 2013 DVDRip x264 AC3 -BoRD\nIMDB    : http://www.imdb.com/title/tt1821694/\n\n~~~~~~~~~~~~~~~~~~~~~~~~~~~~~~~~~~~~~~~~~~~~~~~~~~~~~~\n                     MEDIA INFO\n~~~~~~~~~~~~~~~~~~~~~~~~~~~~~~~~~~~~~~~~~~~~~~~~~~~~~~\n\nFormat                                   : Matroska\nFormat version                           : Version 2\nFile size                                : 1.55 GiB\nDuration                                 : 1h 51mn\nOverall bit rate                         : 1 993 Kbps\nEncoded date                             : UTC 2013-10-28 23:59:08\nWriting application                      : mkvmerge v6.5.0 ('Isn't she lovely') built on Oct 20 2013 12:50:05\nWriting library                          : libebml v1.3.0 + libmatroska v1.4.1\n\nVideo\nID                                       : 1\nFormat                                   : AVC\nFormat/Info                              : Advanced Video Codec\nFormat profile                           : &lt;a class=&quot;__cf_email__&quot; href=&quot;/cdn-cgi/l/email-protection&quot; data-cfemail=&quot;4e062729260e027a607f&quot;&gt;[email&amp;#160;protected]&lt;/a&gt;&lt;script cf-hash='f9e31' type=&quot;text/javascript&quot;&gt;\n/* &lt;![CDATA[ */!function(){try{var t=&quot;currentScript&quot;in document?document.currentScript:function(){for(var t=document.getElementsByTagName(&quot;script&quot;),e=t.length;e--;)if(t[e].getAttribute(&quot;cf-hash&quot;))return t[e]}();if(t&amp;&amp;t.previousSibling){var e,r,n,i,c=t.previousSibling,a=c.getAttribute(&quot;data-cfemail&quot;);if(a){for(e=&quot;&quot;,r=parseInt(a.substr(0,2),16),n=2;a.length-n;n+=2)i=parseInt(a.substr(n,2),16)^r,e+=String.fromCharCode(i);e=document.createTextNode(e),c.parentNode.replaceChild(e,c)}}}catch(u){}}();/* ]]&gt; */&lt;/script&gt;\nFormat settings, CABAC                   : Yes\nFormat settings, ReFrames                : 5 frames\nCodec ID                                 : V_MPEG4/ISO/AVC\nDuration                                 : 1h 51mn\nBit rate                                 : 1 799 Kbps\nWidth                                    : 640 pixels\nHeight                                   : 360 pixels\nDisplay aspect ratio                     : 1.85:1\nOriginal display aspect ratio            : 1.85:1\nFrame rate mode                          : Constant\nFrame rate                               : 25.000 fps\nColor space                              : YUV\nChroma subsampling                       : 4:2:0\nBit depth                                : 8 bits\nScan type                                : Progressive\nBits/(Pixel*Frame)                       : 0.312\nStream size                              : 1.37 GiB (88%)\n\n\nAudio\nID                                       : 2\nFormat                                   : AC-3\nFormat/Info                              : Audio Coding 3\nMode extension                           : CM (complete main)\nFormat settings, Endianness              : Big\nCodec ID                                 : A_AC3\nDuration                                 : 1h 51mn\nBit rate mode                            : Constant\nBit rate                                 : 192 Kbps\nChannel count                            : 2 channels\nChannel positions                        : Front: L R\nSampling rate                            : 44.1 KHz\nBit depth                                : 16 bits\nCompression mode                         : Lossy\nStream size                              : 153 MiB (10%)\nDefault                                  : Yes\nForced                                   : No\n\nPulled to 16:9 ,Cropped top and bottom and then pulled up and down t staighten it out\n\nAint Great,but if ya really cant wait..proper AR and perspective is better....  \n\nSAMPLE INCLUDED\n~~~~~~~~~~~~~~~~~~~~~~~~~~~~~~~~~~~~~~~~~~~~~~~~~~~~~\n                       SCREENS\n~~~~~~~~~~~~~~~~~~~~~~~~~~~~~~~~~~~~~~~~~~~~~~~~~~~~~\n[IMG]http://lookpic.com/O/i2/939/Rnk2NBKF.png[/IMG]\n","torrent":{"xt":"urn:btih:068ab7c1786059230f0670e79f59a4e0019edfc1","amp;dn":"Red+2+2013+DVDRip+x264+AC3+-BoRD","amp;tr":["udp%3A%2F%2Ftracker.openbittorrent.com%3A80","udp%3A%2F%2Fopen.demonii.com%3A1337","udp%3A%2F%2Ftracker.coppersurfer.tk%3A6969","udp%3A%2F%2Fexodus.desync.com%3A6969"],"infoHash":"068ab7c1786059230f0670e79f59a4e0019edfc1","infoHashBuffer":{"type":"Buffer","data":[6,138,183,193,120,96,89,35,15,6,112,231,159,89,164,224,1,158,223,193]},"announce":[],"urlList":[]}}